<svg id="Layer_1" xmlns="http://www.w3.org/2000/svg" viewBox="0 0 414.4 188.4"><style>.st1,.st2{fill:none;stroke:#fff;stroke-width:3;stroke-linecap:round;stroke-linejoin:round}.st2{fill:#fff;stroke:#333;stroke-width:2.5}.st3{fill:#ffde02}.st4,.st5{fill:#fff;stroke:#333;stroke-width:3;stroke-linecap:round;stroke-linejoin:round}.st5{fill:#ffde02;stroke-width:2}.st6{fill:#727272}.st10,.st7,.st8{fill:none;stroke:#333;stroke-width:2;stroke-linecap:round;stroke-linejoin:round}.st10,.st8{fill:#333}.st10{fill:#ffde02;stroke-width:3}.st11{fill:#fff}.st14{opacity:.15}.st15{fill:none;stroke:#333;stroke-width:1.5;stroke-linecap:round;stroke-linejoin:round}.st16{fill:#333}</style><g id="Layer_4"><path fill="#ffde02" stroke="#333" stroke-width="2.5" stroke-linecap="round" stroke-linejoin="round" d="M334.1 20.4l-.4-8.9-3.1-9.7 4.4-.2 10.2 9.5z"/><path class="st1" d="M326.6 84.7l-1.5-20.4M338.2 80.5l-7-16"/><path class="st2" d="M345.2 11.1v.2c0 .1 0 .2-.1.3v.2c-1.1 4.4-7.2 21.6-12.3 36-1.4 3.8-2.6 7.4-3.8 10.5-1.2 3.4-2.2 6.1-2.8 8-.5 1.4-.8 2.3-.8 2.3L274 67.1l17.4-16.2 15.4-14.3 27-25.1 11.4-.4z"/><path class="st3" d="M341 11.2c0 .1 0 .1 0 0 0 .2-.1.3-.1.4v.2c-1.1 4.4-7.2 21.6-12.3 36-1.4 3.8-2.6 7.4-3.8 10.5-1.2 3.4-2.2 6.1-2.8 8-.4 1.1-.7 1.9-.8 2.1l4.1.1s.3-.8.8-2.3c.6-1.8 1.6-4.6 2.8-8 1.1-3.1 2.4-6.7 3.8-10.5 5.1-14.3 11.1-31.6 12.3-36v-.2c0-.1.1-.2.1-.3V11l-4.1.2z"/><path class="st2" d="M345.2 11.1v.2c0 .1 0 .2-.1.3v.2c-1.1 4.4-7.2 21.6-12.3 36-1.4 3.8-2.6 7.4-3.8 10.5-1.2 3.4-2.2 6.1-2.8 8-.5 1.4-.8 2.3-.8 2.3L274 67.1l17.4-16.2 15.4-14.3 27-25.1 11.4-.4z"/><path class="st4" d="M121.5 26.3l11.6-22.8-6.2-2-27.1 17.9z"/><path class="st3" d="M128.2 6.1l1.6.6 1.2-2.3-3.8-1.3-23.9 15.8 3.7 1.2z"/><path class="st4" d="M218.7 66.1c-1.3 1.3-3.9 2.4-7.3 3.2-11.2 2.7-46.8 1.1-55.9-6.7-.8-.7-1.4-1.6-1.7-2.6-1.7-3.5-1.6-7.6.2-11 .5-.9 1.1-1.7 1.9-2.3 3.4-2.8 8.5-5 14.3-6.5 7.9-2.1 33-3.8 41-3.3l3 .3c.5.1.9.1 1.3.2l3.2 28.7z"/><path class="st3" d="M155.4 51.7c.4-.7.9-1.4 1.5-1.9 3.1-2.5 7.8-4.7 13.7-6.2 6.7-1.8 26.4-3.3 36.7-3.3 1.5 0 2.8 0 3.9.1 1 .1 1.9.2 2.9.3h.1l2.7 24.9c.1 0 .1-.1.2-.1l-2.9-26.8h-.1c-.9-.1-1.9-.2-2.9-.3-1-.1-2.4-.1-3.9-.1-10.3 0-29.9 1.6-36.7 3.3-5.9 1.5-10.7 3.7-13.7 6.2-.6.5-1.1 1.2-1.5 1.9-1 1.8-1.4 3.9-1.2 6 .1-1.4.5-2.8 1.2-4z"/><ellipse transform="rotate(-86.748 215.512 52.158) scale(1.00001)" class="st5" cx="215.5" cy="52.2" rx="15.3" ry="11.2"/><path class="st6" d="M221.4 59.7c-.1.1-.2.3-.2.4-.4.7-1 1.3-1.6 1.9-1.1 1.1-2.6 1.8-4.1 1.9h-.8c-4.2-.4-7.3-5.7-7-12 0-.3 0-.6.1-1 0-.4.1-.8.2-1.2.4-3 1.8-5.7 4-7.8.2-.2.5-.4.7-.5 1-.7 2.2-1.1 3.5-1 4.4.2 7.7 5.6 7.4 12.1-.2 2.5-.9 5-2.2 7.2z"/><path class="st7" d="M221.4 59.7c-.1.1-.2.3-.2.4-.4.7-1 1.3-1.6 1.9-1.1 1.1-2.6 1.8-4.1 1.9h-.8c-4.2-.4-7.3-5.7-7-12 0-.3 0-.6.1-1 0-.4.1-.8.2-1.2.4-3 1.8-5.7 4-7.8.2-.2.5-.4.7-.5 1-.7 2.2-1.1 3.5-1 4.4.2 7.7 5.6 7.4 12.1-.2 2.5-.9 5-2.2 7.2z"/><path class="st5" d="M207.7 50.9c0 .3-.1.6-.1 1 0-.4.1-.7.1-1z"/><path class="st8" d="M216.1 40.4c-1.2 0-2.5.3-3.5 1 4 1.1 6.9 6.4 6.6 12.7-.1 1.8-.4 3.6-1 5.3-.6 1.7-1.5 3.2-2.7 4.5 1.6-.1 3-.8 4.1-1.9.6-.6 1.1-1.2 1.6-1.9.1-.1.2-.3.2-.4 1.3-2.2 2-4.7 2-7.2.4-6.6-2.9-12-7.3-12.1z"/><path class="st4" d="M352.3 63.6c-3.1-1.8-12-8.1-20.5-11.7-3-1.1-6.1-1.9-9.3-2.2-4.8-.7-9.6-1-14.4-.9C251.2 50 193.2 56 125.8 67.5c-4.1.7-8.3 1.4-12.5 2.2-1.4.2-2.8.5-4.2.7-1.7.5-1.9 4.4-.3 5.4 2.5 1.2 4.8 2.4 7 3.4 5.5 2.6 10.4 4.8 14.8 6.5 1.3.5 2.6 1 3.8 1.5 4 1.5 7.7 2.6 11 3.5 1.7.4 3.3.8 4.9 1.1.7.1-7.9-.2-7.2 0 46 28 97.9 29.8 114.3 28.3 26-2.3 62.2-8.3 83-11.1 14.6-1.8 29-4.6 43.2-8.4 15.1-3.9 23.1-7.3 26.2-8.7 1-.5 1.8-1.3 2.4-2.2 1.4-2.6.5-5.8-2.1-7.2-.1 0-.1-.1-.2-.1-6.1-3-18.9-8.4-44.1-15.4-8.9-2.5-12.7-3-13.5-3.4z"/><path class="st4" d="M116.9 80.2l-38.8-67s16.2-5.2 26.1-2.4 34.4 34 50.2 40.6c12.4 5.2 62.1 3.3 62.1 3.3"/><path class="st3" d="M218.1 89.9c-45.5-12.8-68.2-39.1-68.2-39.1v-.2C142 45.9 132.7 37 124.4 29c-1.7-1.7-3.5-3.3-5.1-4.9-.5-.5-1-.9-1.5-1.4l-.2-.2c-.4-.4-.8-.8-1.2-1.1l-.4-.4c-.4-.3-.7-.6-1.1-1l-.5-.4c-.3-.3-.6-.5-.9-.8-8.4 4.1-16.9 8.8-23.3 12.2l22.1 38.1c.2.3.2.6.2.9v.1h-.1c-.1.7-.6 1.2-1.2 1.3l-1.7.3c-.3.8-.3 1.6-.2 2.3 0 .1.1.2.2.3 2.3 1.2 4.6 2.3 6.9 3.4l.6.3c.3.3.7.5 1.2.5 4.7 2.2 9 4.1 12.9 5.7h.1c1.3.5 2.5 1 3.7 1.4 3.9 1.4 7.4 2.6 10.8 3.5h.1c1.6.4 3.2.8 4.8 1.1.8.2 1.3.9 1.2 1.6-.2 1.4-1.3-2.6-2.8-2.6-.1 0-.2 2-.4 2 42.2 23.8 89.1 26 108.6 24.2 17.9-1.6 40.3-1.9 60-4.8 8.5-1.2 16.5-2.4 22.9-3.3 14.5-1.8 28.9-4.6 43-8.4 7.2-1.9 12.8-3.6 16.9-5.1 2.7-1 4.7-1.9 5.8-2.4.2.3-104.2 22-187.7-1.5z"/><path d="M213.7 54.8l-61-4.2c.6.3 1.2.6 1.8.8 10.6 4.4 48.6 3.6 59.2 3.4z" fill="none"/><path class="st4" d="M216.5 54.7s-1 0-2.8.1l1.9.1.9-.2z"/><path class="st10" d="M152.7 50.5c-15.8-8-38.9-37.1-48.5-39.8-9.9-2.8-26.1 2.4-26.1 2.4l21 35.5"/><path class="st11" d="M404.6 92.3c.6-.3 1.1-.5 1.5-.7-32.2 6-64.9 9.1-97.6 9.2 32.1 0 64.3-2.8 96.1-8.5zM150.8 93.4h.4c1.4 0 2.6 0 2.8-1.4.1-.8-.5-1.5-1.2-1.6-1.6-.3-3.2-.7-4.8-1.1h-.1c-3.4-.9-7-2-10.8-3.5-1.2-.4-2.5-.9-3.7-1.4h-.1c-3.9-1.6-8.2-3.4-12.9-5.7-.4 0-.9-.2-1.2-.5l-.6-.3c-2.3-1.1-4.6-2.2-6.9-3.4-.1-.1-.2-.2-.2-.3-.2-.8-.1-1.6.2-2.3l1.7-.3c.6-.1 1.1-.6 1.2-1.3h.1v-.1c0-.3 0-.6-.2-.9L92.2 31.1l-9.8-17c5.2-1.5 10.5-2.3 15.9-2.6-6.8-.2-14.5 1.7-17.9 2.6l9.8 17L98.8 46c.2.3 13.5 23.3 13.5 23.3.2.3.2.6.2.9v.1h-.1c-.1.7-.6 1.2-1.2 1.3l-1.7.3c-.3.8-.3 1.6-.2 2.3 0 .1.1.2.2.3 2.3 1.2 4.6 2.3 6.9 3.4l.6.3c.3.3.7.5 1.2.5 4.7 2.2 9 4.1 12.9 5.7h.1c1.3.5 2.5 1 3.7 1.4 3.9 1.4 7.4 2.6 10.8 3.5h.1c1.6.4 3.2.8 4.8 1.1.8.2 1.3.9 1.2 1.6-.2 1.4-1.3 1.4-2.8 1.4h-.4c36.5 20.6 76.6 25.7 99.3 25.6-22.8-.2-61.6-5.6-97.1-25.6z"/><path class="st10" d="M158.8 66.9c-.3 0-4.1-.3-5.1-.4-8.3-.6-34.1 1.2-42.3 3.4-6 1.5-11.2 3.8-14.7 6.7-.8.7-1.4 1.5-1.9 2.4-1.9 3.5-2 7.7-.2 11.3.4 1 1 1.9 1.8 2.6 9.3 8 46 9.7 57.5 6.9 1.6-.4 3.2-.9 4.8-1.6 5.8-.7 10.5-7.2 10.9-15.2.4-8.6-4.5-15.9-10.8-16.1z"/><path class="st11" d="M162.2 69.4h-.5c-.2 0-1.2-.1-2.4-.2-1.1-.1-2.3-.2-2.8-.2-1.1-.1-2.4-.1-4-.1-10.6 0-30.8 1.6-37.8 3.4-6.1 1.6-11 3.8-14.1 6.4-.6.5-1.2 1.2-1.6 2-1.7 3.1-1.8 6.9-.2 10 .3.8.8 1.5 1.4 2.1 1.6 1.2 3.4 2.2 5.3 2.9 14.1 4.1 38.9 4.9 47.9 2.7 1.5-.3 3.1-.8 4.5-1.5.1-.1.3-.1.4-.1 5.1-.6 9.3-6.5 9.6-13.8.2-4.6-1.2-9-3.7-11.8-.5-.7-1.2-1.3-2-1.8z"/><path d="M158.6 85.3c-1.5.7-3.1 1.2-4.8 1.6-11.6 2.8-48.2 5.1-57.5-2.9-.7-.6-1.3-5.5-1.8-6.6-.1-.3-.3 3.3-.4 3-1.4 3.4-1 2.8.4 6 .4 1 1 1.9 1.8 2.6 9.3 8 46 9.7 57.5 6.9 1.6-.4 3.2-.9 4.8-1.6 5.8-.7 10.5-7.2 10.9-15.2.1-1.8-.1-3.7-.5-5.5-1.3 6.3-5.5 11.1-10.4 11.7z" opacity=".5" fill="#333" fill-opacity=".15"/><ellipse transform="rotate(-86.748 158.033 82.62) scale(1.00001)" class="st5" cx="158" cy="82.6" rx="15.7" ry="11.5"/><path class="st6" d="M164.1 90.4c-.1.1-.2.3-.3.4-.5.7-1 1.4-1.6 2-1.1 1.2-2.7 1.9-4.3 2h-.8c-4.3-.4-7.6-5.9-7.3-12.4 0-.3 0-.7.1-1 0-.4.1-.8.2-1.2.4-3.1 1.9-5.9 4.2-8 .2-.2.5-.4.7-.6 1.1-.7 2.3-1.1 3.6-1.1 4.5.2 7.9 5.7 7.6 12.4-.1 2.6-.8 5.2-2.1 7.5z"/><path class="st7" d="M164.1 90.4c-.1.1-.2.3-.3.4-.5.7-1 1.4-1.6 2-1.1 1.2-2.7 1.9-4.3 2h-.8c-4.3-.4-7.6-5.9-7.3-12.4 0-.3 0-.7.1-1 0-.4.1-.8.2-1.2.4-3.1 1.9-5.9 4.2-8 .2-.2.5-.4.7-.6 1.1-.7 2.3-1.1 3.6-1.1 4.5.2 7.9 5.7 7.6 12.4-.1 2.6-.8 5.2-2.1 7.5z"/><path class="st5" d="M150 81.3c0 .3-.1.7-.1 1 0-.3.1-.7.1-1z"/><path class="st8" d="M158.6 70.5c-1.3 0-2.5.3-3.6 1.1 4.1 1.1 7.1 6.6 6.8 13.1-.1 1.9-.4 3.7-1.1 5.4-.6 1.7-1.5 3.3-2.8 4.7 1.6-.1 3.1-.8 4.3-2 .6-.6 1.2-1.3 1.6-2 .1-.1.2-.3.3-.4 1.3-2.3 2-4.8 2.1-7.4.3-6.8-3-12.3-7.6-12.5z"/><path class="st4" d="M296.7 104.8c-2.2-1.4-4.8-2.2-7.4-2.1l-89.5 1.9c-6.8.1-13.5 1.7-19.6 4.6l-11.6 5.4-40.9 19.1-98.2 45.8 8.1 4.1 4.6 3.4 178.9-54.1 66.8-20.2 8.1-2.4c1.6-.5 2.5-2.2 2-3.8-.2-.8-.7-1.4-1.3-1.7zM117.5 27.2L42.8 40.1l-12.9-2.7L90.4 21z"/><path class="st3" d="M44.3 38.3l47.1-12.7 11.5 2.6 7-1.2-19.5-4.4-54.1 14.6 6.6 1.4z"/><path d="M275 93.7c-1.1-.2-1.8-1.3-1.6-2.3.2-.8.8-1.5 1.6-1.6-.2-1-.3-2-.4-2.9-1.1.2-2.1-.5-2.4-1.6s.5-2.1 1.6-2.4h.4c-.1-1-.2-2.1-.2-3.1-1.1 0-2-.8-2.1-1.9 0-1.1.8-2 1.9-2.1V73c-1.1 0-2-.8-2-1.9s.8-2 1.9-2h.2c.1-1.3.1-2.5.2-3.6-.6 0-1.2-.2-1.8-1.5-.2-.3-.2-.7-.1-1.1.3-1 1.3-1.5 2.3-1.3.2-1.2.3-2.2.5-2.9.1-.5-.3-1.1-.8-1.2h-.2l-2.6.1c0 .9-.5 1.7-1.4 2-.7.2-1.5 0-2-.5-.4-.4-.6-.9-.6-1.4l-3.3.1c0 .9-.5 1.7-1.4 2-.7.2-1.5 0-2-.5-.4-.4-.6-.9-.6-1.4l-3.5.1c0 .9-.5 1.7-1.4 2-.7.2-1.5 0-2-.5-.4-.4-.6-.9-.6-1.4l-3.2.1c0 1.1-.8 2-1.9 2.1-1.1 0-2-.8-2.1-1.9l-2.5.1c-.4 0-.8.3-.9.7-.3.9-.5 1.8-.7 2.6 1.1.2 1.7 1.3 1.5 2.4-.2 1-1.3 1.7-2.3 1.5h-.1c-.3 1.3-.5 2.6-.6 3.8h.3c1.1.2 1.8 1.3 1.6 2.3-.2 1.1-1.2 1.8-2.3 1.6-.1 1.1-.1 2.1-.1 3.1.6 0 1.2.1 1.9 2.3-.2.9-.9 1.5-1.7 1.6.1 1 .2 2 .3 2.9.7-.1 1.3.2 1.7.8.7.8.6 2-.2 2.7-.2.2-.5.3-.8.4.3 1.3.7 2.4 1 3.5 1-.4 2.2 0 2.6 1.1.4 1 0 2.2-1.1 2.6h-.1c.4.8.7 1.5 1 1.9.2.3.5.5.9.5h2.5c0-1.1.9-2 2-2s2 .9 2 2h3.3c0-.9.6-1.7 1.4-1.9.7-.2 1.5 0 2 .5.4.4.6.9.6 1.4h2.9c0-.9.5-1.7 1.4-2 .7-.2 1.5 0 2 .5.4.4.6.9.6 1.4h2.9c0-.9.6-1.7 1.4-1.9.7-.2 1.4 0 2 .5.4.4.6.9.6 1.4h2.7c.6 0 1-.5 1-1v-.2c-.1-.6-.2-1.1-.3-1.7-.3-.1-.5-.1-.8-.1z" fill="#fff" stroke="#333" stroke-width="1.8" stroke-linecap="round" stroke-linejoin="round"/><path class="st3" d="M247.4 91.9c-1.9-4.2-5-14.1-1.3-28.5l23.1-.8c-.9 6.2-.9 16.5 1.1 29l-22.9.3z"/><path class="st11" d="M199.6 56.4s16.8-.7 23.8-1-2.1 4.2-2.1 4.2l-10.2 3.7h-9.6l-1.9-6.9z"/><g class="st14"><path class="st15" d="M213.1 67.4c8.8 0 8.8 4.4 17.6 4.4 7.5 0 9.1-1.8 14.2-4.2M201.6 70.9c3.2-1.7 5.4-3.5 11.5-3.5"/></g><g class="st14"><path class="st15" d="M212.8 73.4c8.8 0 8.8 4.4 17.6 4.4 7.5 0 9.1-1.8 14.2-4.2M201.3 76.9c3.2-1.7 5.4-3.5 11.5-3.5"/></g><g class="st14"><path class="st15" d="M212.6 79.4c8.8 0 8.8 4.4 17.6 4.4 7.5 0 9.1-1.8 14.2-4.2M201.1 82.9c3.2-1.7 5.4-3.5 11.5-3.5"/></g><g class="st14"><path class="st15" d="M212.4 85.4c8.8 0 8.8 4.4 17.6 4.4 7.5 0 9.1-1.8 14.2-4.2M200.9 88.9c3.2-1.7 5.4-3.5 11.5-3.5"/></g><path class="st16" d="M252.7 85.4l-2.4.1.5 2.5 7.4-.2-.2-2.6-2.4.1s-.2-2-.3-2.7c-.1-2-.1-2.6-.1-2.6l2.4-.1c2.7-.1 4.5-.5 5.8-1.9 1-1.1 1.6-2.7 1.5-4.2-.1-2.6-.3-6.6-5.6-6.5l-9.1.2-.4 2.6 2.4-.1s-.1 5.7-.2 7.5c.1 2.7.3 5.3.7 7.9zm2.4-7.9s-.1-1.5-.1-3.6c0-2.3.1-3.9.1-3.9l4.3-.1c2.1-.1 2.4 1.2 2.5 3.6.1 2.1-.6 3.9-4.2 4h-2.6z"/><path class="st3" d="M272.6 115.7c-3.6-2.1-8.2-4.7-11.6-5.6-4.8-1.4-9.9-1.8-14.9-1.1-22.9 3.6-50.5 11.1-92.7 14.4l-15 7c72.9-10.2 70.8-6.7 59 3.7-1.1 1 1.4 2.1 2.2 3.8l21-6.4 52-15.8z"/><path class="st3" d="M296.7 104.8c-2.2-1.4-4.8-2.2-7.4-2.1l-2.7.1h.1c1.4.9 1.8 2.8.9 4.2-.4.6-1 1-1.6 1.2l-8.1 2.4-66.8 20.2-173.8 52.6.4.2 4.6 3.4 178.9-54.1 66.8-20.2 8.1-2.4c1.6-.5 2.5-2.2 2-3.8-.3-.8-.8-1.4-1.4-1.7z"/><path class="st7" d="M83.1 71.1h-13M45.1 71.1h18M23.1 86.1h11M41.1 86.1h37M79.1 100.1h-2M71.1 100.1h-10M290.1 7.1h26M284.1 7.1h-2M7.1 155.1h12M27.1 155.1h11M308 18h-17.9M43.1 17.1h-24M47.1 6.1h-10"/><path class="st4" d="M296.7 104.8c-2.2-1.4-4.8-2.2-7.4-2.1l-89.5 1.9c-6.8.1-13.5 1.7-19.6 4.6l-11.6 5.4-40.9 19.1-98.2 45.8 8.1 4.1 4.6 3.4 178.9-54.1 66.8-20.2 8.1-2.4c1.6-.5 2.5-2.2 2-3.8-.2-.8-.7-1.4-1.3-1.7z"/><path class="st10" d="M26.9 182.9L17.4 169l9 1.6 15.8 16.3z"/><path class="st16" d="M330.6 66.6c-1.4.4-2.7.7-3.9 1l.9 12.9c2.9-.2 5.8-.6 8.5-1.1l-5.5-12.8zM324 68.1c-1.9.3-3.4.4-4.2.4-.4 0-.8.3-.9.8l-1.6 10.2c-.1.5.3 1 .8 1.1 2.3.2 4.5.2 6.8.1l-.9-12.6zM346.7 58.4c-4.7 3.6-9.3 5.9-13.4 7.3l5.7 13.1c12.7-2.8 22.5-8.3 25.9-11.2.6-.5 2-1.7 2-1.7l-20.2-7.5z"/></g></svg>